# xmcd
#
# Track frame offsets:
#	150
#	19966
#	38274
#	53862
#	72815
#	89621
#	108221
#	122301
#	138269
#	156633
#
# Disc length: 2258 seconds
#
# Revision: 1
# Processed by: cddbd v1.5.1PL0 Copyright (c) Steve Scherf et al.
# Submitted via: audiograbber 1.82.02
#
DISCID=7c08d00a
DTITLE=Uncle Carl - Bring Me Your Children
DYEAR=2002
DGENRE=
TTITLE0=My Heart Is Yours
TTITLE1=Unless I Get What I Want
TTITLE2=Special
TTITLE3=This Ain't No Sentimental Journey
TTITLE4=When I Get My Big Break
TTITLE5=Before He Sends Me To Hell
TTITLE6=Paris Blues
TTITLE7=Hollywood Boy
TTITLE8=I'd Rather Be In Hell
TTITLE9=My Little Idaho
EXTD=
EXTT0=
EXTT1=
EXTT2=
EXTT3=
EXTT4=
EXTT5=
EXTT6=
EXTT7=
EXTT8=
EXTT9=
PLAYORDER=
